HIERARCHY
ROOT Hips
{
  OFFSET 267.745 86.9975 -272.335
  CHANNELS 6 Xposition Yposition Zposition Zrotation Xrotation Yrotation
  JOINT LeftUpLeg
  {
    OFFSET 8.64259 1.95398 -2.38835
    CHANNELS 3 Zrotation Xrotation Yrotation
    JOINT LeftLeg
    {
      OFFSET 43.7702 0 0
      CHANNELS 3 Zrotation Xrotation Yrotation
      JOINT LeftFoot
      {
        OFFSET 40.6238 0 0
        CHANNELS 3 Zrotation Xrotation Yrotation
        JOINT LeftToeBase
        {
          OFFSET 12.7242 0 0
          CHANNELS 3 Zrotation Xrotation Yrotation
          End Site
          {
            OFFSET 0 0 0
          }
        }
      }
    }
  }
  JOINT RightUpLeg
  {
    OFFSET -8.2249 1.95398 -2.59336
    CHANNELS 3 Zrotation Xrotation Yrotation
    JOINT RightLeg
    {
      OFFSET 43.5653 0 0
      CHANNELS 3 Zrotation Xrotation Yrotation
      JOINT RightFoot
      {
        OFFSET 40.6238 0 0
        CHANNELS 3 Zrotation Xrotation Yrotation
        JOINT RightToeBase
        {
          OFFSET 12.7242 0 0
          CHANNELS 3 Zrotation Xrotation Yrotation
          End Site
          {
            OFFSET 0 0 0
          }
        }
      }
    }
  }
  JOINT Spine
  {
    OFFSET 0.165834 0.87714 6.61349
    CHANNELS 3 Zrotation Xrotation Yrotation
    JOINT Spine1
    {
      OFFSET 7.38963 1.71661e-005 0
      CHANNELS 3 Zrotation Xrotation Yrotation
      JOINT Spine2
      {
        OFFSET 11.9445 1.14441e-005 0
        CHANNELS 3 Zrotation Xrotation Yrotation
        JOINT Spine3
        {
          OFFSET 14.7254 4.19617e-005 0
          CHANNELS 3 Zrotation Xrotation Yrotation
          JOINT Spine4
          {
            OFFSET 10.9679 0 0
            CHANNELS 3 Zrotation Xrotation Yrotation
            JOINT RightShoulder
            {
              OFFSET 2.46616 -1.6653 3.69651
              CHANNELS 3 Zrotation Xrotation Yrotation
              JOINT RightArm
              {
                OFFSET 13.0012 0 0
                CHANNELS 3 Zrotation Xrotation Yrotation
                JOINT RightForeArm
                {
                  OFFSET 28.7848 1.52588e-005 0
                  CHANNELS 3 Zrotation Xrotation Yrotation
                  JOINT RightHand
                  {
                    OFFSET 26.5688 1.52588e-005 0
                    CHANNELS 3 Zrotation Xrotation Yrotation
                    End Site
                    {
                      OFFSET 0 0 0
                    }
                  }
                }
              }
            }
            JOINT LeftShoulder
            {
              OFFSET 2.38034 -1.29275 -3.7523
              CHANNELS 3 Zrotation Xrotation Yrotation
              JOINT LeftArm
              {
                OFFSET 16.3182 6.10352e-005 0
                CHANNELS 3 Zrotation Xrotation Yrotation
                JOINT LeftForeArm
                {
                  OFFSET 27.0901 0 0
                  CHANNELS 3 Zrotation Xrotation Yrotation
                  JOINT LeftHand
                  {
                    OFFSET 24.5451 1.52588e-005 0
                    CHANNELS 3 Zrotation Xrotation Yrotation
                    End Site
                    {
                      OFFSET 0 0 0
                    }
                  }
                }
              }
            }
            JOINT Neck
            {
              OFFSET 5.0226 -0.0266342 0
              CHANNELS 3 Zrotation Xrotation Yrotation
              JOINT Head
              {
                OFFSET 6.69364 2.86102e-005 0
                CHANNELS 3 Zrotation Xrotation Yrotation
                End Site
                {
                  OFFSET 0 0 0
                }
              }
            }
          }
        }
      }
    }
  }
}
MOTION
Frames:	15
Frame Time:	0.0416667
186.634 35.2798 -199.08 -127.391 -52.3624 -119.146 -158.976 77.6567 83.7284 -156.026 23.8174 2.01265 68.9782 11.8124 23.3485 67.5394 -2.09872 9.97945 -132.686 68.5348 15.822 -152.299 -23.5299 -2.38995 65.7364 4.91649 21.9546 61.7227 -6.72175 6.88694 0.686204 12.1038 -90.8853 2.67032 1.02382 -1.71505 -9.00143 0.947335 -1.75844 -31.5338 1.49188 -1.32815 -11.5212 1.49187 -1.32814 96.7367 -42.3981 -91.5 -12.6321 -42.0851 -55.1016 -83.2472 8.45374 -75.9448 24.4002 11.9204 45.4087 -87.8356 -37.9816 79.2902 -16.2249 20.2976 -64.7853 57.2559 31.3078 -71.7635 -26.0384 0.337365 -6.41198 6.35643 3.16319 -1.9945 9.73613 4.81926 11.0414 
186.795 35.5284 -199.019 -129.975 -52.843 -122.346 -151.333 75.9034 74.5837 -155.324 20.8738 2.20048 68.2387 11.4205 22.9894 68.5182 -2.43458 8.67424 -134.966 66.176 16.6874 -152.132 -24.1141 -2.28431 65.9936 4.63558 21.4628 60.6074 -6.10888 8.86267 0.519339 12.27 -90.9253 2.33549 0.677299 -1.79367 -9.33655 0.597711 -1.82174 -31.8656 1.185 -1.50729 -11.853 1.18501 -1.5073 97.0628 -41.4868 -91.0486 -9.93091 -40.7966 -54.2686 -83.2959 6.08693 -76.6422 22.4829 11.0947 45.8663 -88.4858 -39.3836 78.4998 -16.0301 19.7559 -64.9546 58.057 31.8808 -72.6103 -26.3139 0.907565 -9.07883 6.66592 2.14355 -1.79497 7.58735 3.56513 10.9044 
186.662 35.4462 -198.909 -129.055 -52.9913 -121.992 -143.252 75.535 66.7429 -154.95 21.0323 2.38126 66.0221 10.5436 26.7109 72.3183 -2.72027 8.1187 -132.835 66.7789 14.6902 -152.347 -24.1592 -2.26426 65.2027 4.46666 20.0447 62.7996 -6.34629 9.53431 0.516223 12.2138 -90.8768 2.44811 0.689127 -1.70058 -9.22381 0.613625 -1.72925 -31.7538 1.16832 -1.41493 -11.7411 1.16831 -1.41494 96.9446 -41.7562 -91.2212 -12.8761 -41.7991 -55.2809 -76.5528 7.65426 -76.6562 15.6899 8.46431 49.7673 -88.8141 -39.2248 77.9017 -15.9902 19.6128 -64.572 58.4092 31.6155 -72.8526 -26.5725 0.839379 -8.70281 5.61457 1.92538 -2.66467 8.5465 3.69711 11.8343 
186.67 35.4594 -198.779 -127.59 -53.3889 -120.918 -141.161 75.983 64.6976 -154.885 21.3204 2.44868 66.5825 10.3526 24.7818 72.5497 -2.00526 10.7865 -130.527 67.2021 12.2759 -152.508 -24.6175 -2.30874 66.1399 4.10292 20.0689 61.5157 -6.55502 7.51519 0.468368 12.1209 -90.7898 2.63364 0.626255 -1.53365 -9.03809 0.558153 -1.55972 -31.5691 1.05819 -1.2746 -11.5564 1.05819 -1.2746 96.6886 -42.2715 -91.5981 -15.4628 -43.2882 -55.8442 -66.7698 10.9113 -78.386 3.78088 2.34671 53.5427 -88.2649 -38.6049 78.6947 -16.3666 19.7685 -64.3777 58.8366 31.8698 -72.9887 -26.7307 1.21251 -10.4016 7.01057 2.50816 -2.17613 7.02654 3.93854 10.7892 
186.67 35.4165 -198.715 -127.137 -53.6516 -120.271 -142.543 76.7946 66.0068 -154.967 21.3498 2.41838 66.8457 9.92634 22.9935 72.6217 -1.77225 11.6435 -130.912 68.1649 12.3803 -152.268 -24.3468 -2.4006 64.452 4.4659 18.9946 65.7864 -6.62562 10.4193 0.452788 12.1123 -90.8095 2.65054 0.587477 -1.57281 -9.02125 0.517705 -1.59714 -31.5517 1.03297 -1.32361 -11.539 1.03297 -1.32361 96.5398 -42.0872 -91.8781 -13.2016 -44.378 -54.6125 -55.5911 8.90815 -77.7934 -14.4466 -7.44151 51.1458 -88.121 -38.3162 78.8737 -16.5531 19.6311 -64.359 57.972 31.1823 -72.6611 -26.7797 1.01644 -9.48493 5.95165 2.25774 -3.54342 8.58041 4.25424 12.305 
186.601 35.548 -198.664 -127.1 -53.7289 -120.349 -140.647 76.0945 64.0137 -154.915 21.0193 2.42479 66.5697 10.8453 26.0256 72.4278 -2.32632 9.59779 -130.98 67.5712 12.5611 -152.488 -24.8658 -2.28702 66.5565 3.82284 19.7334 61.2565 -6.78461 6.20463 0.476934 12.1478 -90.8805 2.57936 0.608294 -1.7104 -9.0926 0.532428 -1.73551 -31.622 1.09416 -1.4486 -11.6093 1.09415 -1.44861 96.8421 -41.7175 -91.4031 -10.7187 -44.7051 -53.5915 -41.7541 9.66525 -78.6426 -35.8308 -15.7428 41.7227 -88.4606 -39.4032 78.5478 -15.3997 19.5748 -64.9734 56.8309 30.8552 -72.2565 -27.508 0.80597 -8.38827 4.51013 2.05861 -3.34513 10.4857 4.32263 13.3419 
186.575 35.5131 -198.577 -126.984 -53.6411 -120.113 -141.347 76.2042 64.8831 -155.005 21.4089 2.39508 66.0458 10.5256 26.8007 73.0468 -2.54068 8.88581 -131.298 67.6903 13.0145 -152.556 -25.3716 -2.26801 66.5022 3.64093 18.9942 62.113 -6.9959 5.95703 0.49949 12.1528 -90.8807 2.56969 0.653268 -1.71011 -9.10225 0.577398 -1.7372 -31.6319 1.13698 -1.4348 -11.6193 1.13698 -1.43482 96.913 -41.5426 -91.3018 -17.5582 -46.236 -57.5118 -30.364 12.825 -81.2344 -53.703 -21.9043 37.1185 -88.3185 -39.0217 78.7004 -15.7359 19.7359 -64.9426 57.188 31.0722 -72.3626 -27.3402 0.805954 -8.41588 5.66354 2.01445 -3.37143 8.94027 4.12042 13.1935 
186.579 35.564 -198.55 -126.957 -53.5477 -120.158 -141.016 75.9446 64.5823 -155.022 21.3568 2.39876 66.1502 10.8977 27.3933 72.8257 -2.53909 8.86431 -131.206 67.2996 13.0364 -152.476 -25.2471 -2.26148 66.7126 3.83216 19.7803 61.5914 -6.946 5.70207 0.498991 12.1729 -90.8672 2.52956 0.658029 -1.68303 -9.14235 0.583308 -1.71036 -31.6723 1.13338 -1.40755 -11.6596 1.13337 -1.40755 96.8442 -41.4327 -91.4351 -20.805 -46.8617 -60.0344 -16.4941 15.1404 -80.5087 -70.1595 -20.8443 24.65 -88.4446 -38.9547 78.4682 -15.9182 19.5256 -64.8385 57.8791 31.2989 -72.6944 -26.8584 0.957029 -9.1996 6.69958 1.89952 -3.27125 7.60675 3.83829 13.0008 
186.563 35.562 -198.493 -126.723 -53.5257 -119.713 -141.816 76.2482 65.4525 -155.097 21.6684 2.36742 65.9628 10.7152 27.5577 72.9415 -2.63635 8.527 -131.695 67.5272 13.6053 -152.47 -25.5059 -2.26211 66.9408 3.67804 19.5516 61.634 -7.08294 5.09491 0.483143 12.1269 -90.8056 2.62165 0.649657 -1.56402 -9.05011 0.580168 -1.59109 -31.581 1.08963 -1.29653 -11.5684 1.08961 -1.29655 96.4108 -42.0286 -92.1078 -20.3833 -47.8374 -60.3314 -6.50963 17.5954 -79.7338 -78.9659 -16.5228 15.0862 -88.1562 -38.0845 78.7578 -16.5518 19.6825 -64.1382 57.7875 31.049 -72.5211 -26.6417 0.950975 -9.21094 6.19123 2.13343 -3.67006 7.55247 4.04384 12.2227 
186.569 35.5704 -198.47 -126.642 -53.5518 -119.686 -141.886 76.2963 65.4611 -155.109 21.383 2.38116 66.3116 10.8156 26.7406 72.6299 -2.45991 9.1284 -131.621 67.8359 13.4993 -152.399 -24.8458 -2.29818 65.9727 3.9557 19.3651 62.9173 -7.04881 6.44657 0.470933 12.1405 -90.8228 2.59432 0.618751 -1.59781 -9.07747 0.547852 -1.62348 -31.6079 1.07031 -1.33804 -11.5953 1.07031 -1.33805 96.5249 -41.7201 -91.9515 -21.3316 -48.3973 -61.1558 0.052679 19.7277 -81.0826 -83.6362 -13.4638 10.0679 -88.3824 -38.6251 78.4963 -15.7216 19.4836 -64.2346 57.7206 30.8293 -72.5078 -26.4058 0.94945 -9.23522 6.06949 2.20935 -3.7143 7.81313 4.22239 12.9035 
186.607 35.6751 -198.54 -126.452 -53.4734 -119.88 -140.154 75.9338 63.8223 -154.916 20.9348 2.45777 66.3718 10.8724 26.6225 72.4483 -2.47826 9.04051 -130.89 68.0187 12.7919 -152.293 -24.2052 -2.31488 65.8064 3.89031 19.3227 62.8688 -7.02217 6.5153 0.507437 12.172 -90.8526 2.53161 0.680454 -1.65416 -9.14026 0.607011 -1.6825 -31.6706 1.1461 -1.37327 -11.6579 1.14611 -1.37326 96.9087 -41.2439 -91.3465 -21.9776 -48.7033 -61.5498 2.1699 20.8755 -81.1071 -86.0789 -11.5669 7.39644 -88.5722 -39.2233 78.3145 -15.5749 19.6425 -64.8221 60.921 31.7921 -74.1851 -24.6041 1.51155 -12.7531 6.04571 2.10141 -2.13596 8.33028 3.75467 11.8239 
186.651 35.7695 -198.639 -127.096 -53.81 -120.85 -138.801 75.4346 61.9376 -154.592 20.2561 2.50641 66.2948 11.03 26.7785 72.497 -2.68871 8.27004 -131.7 68.1458 12.9962 -152.289 -25.7736 -2.28383 65.2227 3.42756 16.5827 65.9199 -7.57882 6.69061 0.422137 12.166 -90.7494 2.54286 0.550368 -1.45481 -9.12881 0.485827 -1.47763 -31.66 0.962117 -1.22221 -11.6473 0.962125 -1.22221 96.6955 -41.8176 -91.6448 -21.3456 -49.0865 -60.9131 7.85044 21.7266 -84.2831 -86.7397 -9.96937 5.5442 -87.9162 -37.8176 79.1117 -16.5373 20.2268 -64.5443 60.6708 30.8132 -74.1534 -25.9736 1.32287 -11.278 5.16435 2.05627 -4.3746 8.77906 4.32919 13.3718 
186.7 35.7854 -198.791 -127.469 -53.7775 -121.043 -139.05 75.1406 62.2173 -154.473 20.1078 2.51939 66.7094 11.5764 26.9961 72.2069 -2.69592 8.19934 -132.146 68.815 13.3713 -152.464 -26.4001 -2.26478 65.6399 2.44494 14.4665 64.2892 -7.45245 5.87103 0.431045 12.2617 -90.7994 2.35132 0.549822 -1.55062 -9.32046 0.481049 -1.57332 -31.8509 0.990378 -1.31376 -11.8382 0.99039 -1.31375 97.3101 -40.0507 -90.7857 -20.6332 -49.338 -61.8103 5.66913 21.5245 -83.6484 -87.0016 -9.0644 4.53423 -87.3482 -37.2863 79.9831 -16.334 20.4312 -65.2305 59.2203 29.13 -73.7725 -25.9588 1.00655 -9.62081 5.24433 1.84571 -4.1695 8.12616 4.00216 13.272 
186.881 35.5475 -199.125 -128.494 -53.709 -121.994 -140.223 75.3718 63.081 -154.563 21.0555 2.44268 66.6022 11.3169 26.7132 71.5333 -2.46397 8.97427 -132.411 68.7065 13.3904 -152.396 -25.4659 -2.31088 64.8938 2.90524 15.0638 66.3245 -7.24066 8.37906 0.392755 12.4232 -90.7833 2.02807 0.481688 -1.51781 -9.64371 0.414441 -1.53753 -32.1739 0.915545 -1.30294 -12.1613 0.915551 -1.30292 97.5405 -38.7131 -90.5314 -18.2644 -49.4571 -61.0639 3.41191 21.0986 -83.8751 -85.2052 -8.00092 3.67443 -86.3355 -35.2732 81.348 -17.5455 21.0762 -66.0105 60.0065 26.5596 -74.654 -26.8893 0.422653 -6.72498 2.09603 1.14992 -5.35289 9.72952 3.57576 13.1933 
187.181 36.4064 -199.696 -124.558 -54.1491 -118.766 -136.841 77.4452 59.994 -153.271 19.0584 2.67627 67.6626 10.9111 22.0614 69.4692 -2.50284 8.4961 -136.495 76.4435 17.067 -151.156 -27.6239 -2.73821 60.4494 0.816559 0.0342013 78.0265 -8.77403 9.77555 0.601576 12.2394 -90.7886 2.39816 0.89432 -1.52383 -9.27341 0.826392 -1.5617 -31.8063 1.3109 -1.18466 -11.7937 1.3109 -1.18466 98.0011 -39.476 -89.6198 -14.1545 -49.7872 -56.3653 1.16656 19.7205 -86.2337 -80.4998 -7.41808 3.72552 -85.7341 -34.3631 82.2522 -19.0185 23.0581 -66.0972 60.2037 24.9366 -75.1793 -28.3258 -0.0726439 -4.47883 -0.899408 0.423551 -4.63414 11.9722 2.72627 12.0212 
